<?xml version="1.0" encoding="UTF-8" standalone="no"?>
<svg
   viewBox="-2 -2 24 24"
   width="24"
   height="24"
   fill="currentColor"
   version="1.1"
   id="svg1416"
   sodipodi:docname="chevrons-square-middle.svg"
   inkscape:version="1.1.2 (b8e25be8, 2022-02-05)"
   xmlns:inkscape="http://www.inkscape.org/namespaces/inkscape"
   xmlns:sodipodi="http://sodipodi.sourceforge.net/DTD/sodipodi-0.dtd"
   xmlns="http://www.w3.org/2000/svg"
   xmlns:svg="http://www.w3.org/2000/svg">
  <defs
     id="defs1420" />
  <sodipodi:namedview
     id="namedview1418"
     pagecolor="#ffffff"
     bordercolor="#666666"
     borderopacity="1.0"
     inkscape:pageshadow="2"
     inkscape:pageopacity="0.0"
     inkscape:pagecheckerboard="0"
     showgrid="false"
     inkscape:zoom="10.139072"
     inkscape:cx="-4.4875901"
     inkscape:cy="8.3340959"
     inkscape:window-width="1622"
     inkscape:window-height="997"
     inkscape:window-x="58"
     inkscape:window-y="25"
     inkscape:window-maximized="1"
     inkscape:current-layer="svg1416" />
  <path
     id="path1414"
     transform="translate(-2,-2)"
     d="M 6,2 A 4,4 0 0 0 2,6 v 12 a 4,4 0 0 0 4,4 h 12 a 4,4 0 0 0 4,-4 V 6 A 4,4 0 0 0 18,2 Z m 0,2 h 12 a 2,2 0 0 1 2,2 v 12 a 2,2 0 0 1 -2,2 H 6 A 2,2 0 0 1 4,18 V 6 A 2,2 0 0 1 6,4 Z" />
  <rect
     id="rect1492"
     width="10.985"
     height="1.80056"
     x="4.5065689"
     y="6.9850001"
     rx="0.86244702"
     ry="1.449"
     fill="currentColor" />
  <rect
     id="rect1492-6"
     width="10.985"
     height="1.80056"
     x="4.507"
     y="11.485"
     rx="0.86244702"
     ry="1.449"
     fill="currentColor" />
</svg>
